<?xml version="1.0" encoding="iso-8859-1"?>
<!-- Generator: Adobe Illustrator 19.0.0, SVG Export Plug-In . SVG Version: 6.00 Build 0)  -->
<svg version="1.1" id="Layer_1" xmlns="http://www.w3.org/2000/svg" xmlns:xlink="http://www.w3.org/1999/xlink" x="0px" y="0px"
	 viewBox="0 0 512 512" style="enable-background:new 0 0 512 512;" xml:space="preserve">
<polygon style="fill:#D5C9B3;" points="323.693,504.193 99.518,504.193 99.518,7.807 419.768,7.807 419.768,400.112 "/>
<polygon style="fill:#CBBBA0;" points="320.049,504.193 288.024,504.193 288.024,7.807 416.124,7.807 416.124,400.112 "/>
<polygon style="fill:#36A9E1;" points="320.049,400.112 320.049,504.193 416.124,400.112 "/>
<polygon style="fill:#5EBAE7;" points="352.074,469.5 320.049,504.193 320.049,400.112 352.074,400.112 "/>
<path style="fill:#1D1D1B;" d="M88.068,0v512h235.399l100.464-108.836V0H88.068z M103.682,15.613h304.636v376.692h-96.075v104.081
	H103.682V15.613z M398.294,407.919l-70.438,76.308v-76.308H398.294z"/>
<rect x="143.913" y="56.043" style="fill:#FFFFFF;" width="224.175" height="15.613"/>
<g>
	<rect x="215.973" y="96.074" style="fill:#1D1D1B;" width="80.062" height="15.613"/>
	<rect x="191.95" y="136.106" style="fill:#1D1D1B;" width="176.139" height="15.613"/>
</g>
<rect x="143.913" y="136.106" style="fill:#FFFFFF;" width="32.025" height="15.613"/>
<rect x="191.95" y="176.139" style="fill:#1D1D1B;" width="176.139" height="15.613"/>
<rect x="143.913" y="176.139" style="fill:#FFFFFF;" width="32.025" height="15.613"/>
<rect x="191.95" y="216.171" style="fill:#1D1D1B;" width="176.139" height="15.613"/>
<rect x="143.913" y="216.171" style="fill:#FFFFFF;" width="32.025" height="15.613"/>
<rect x="191.95" y="256.203" style="fill:#1D1D1B;" width="176.139" height="15.613"/>
<rect x="143.913" y="256.203" style="fill:#FFFFFF;" width="32.025" height="15.613"/>
<rect x="191.95" y="296.236" style="fill:#1D1D1B;" width="176.139" height="15.613"/>
<rect x="143.913" y="296.236" style="fill:#FFFFFF;" width="32.025" height="15.613"/>
<rect x="191.95" y="336.258" style="fill:#1D1D1B;" width="176.139" height="15.613"/>
<g>
	<rect x="143.913" y="336.258" style="fill:#FFFFFF;" width="32.025" height="15.613"/>
	<rect x="143.913" y="440.346" style="fill:#FFFFFF;" width="16.013" height="15.613"/>
	<rect x="175.941" y="440.346" style="fill:#FFFFFF;" width="16.013" height="15.613"/>
	<rect x="207.958" y="440.346" style="fill:#FFFFFF;" width="16.012" height="15.613"/>
</g>
<g>
</g>
<g>
</g>
<g>
</g>
<g>
</g>
<g>
</g>
<g>
</g>
<g>
</g>
<g>
</g>
<g>
</g>
<g>
</g>
<g>
</g>
<g>
</g>
<g>
</g>
<g>
</g>
<g>
</g>
</svg>
