<?xml version="1.0" encoding="iso-8859-1"?>
<!-- Generator: Adobe Illustrator 19.0.0, SVG Export Plug-In . SVG Version: 6.00 Build 0)  -->
<svg version="1.1" id="Layer_1" xmlns="http://www.w3.org/2000/svg" xmlns:xlink="http://www.w3.org/1999/xlink" x="0px" y="0px"
	 viewBox="0 0 512 512" style="enable-background:new 0 0 512 512;" xml:space="preserve">
<path style="fill:#FFFFFF;" d="M456.533,384c0,61.184-49.749,110.933-110.933,110.933S234.667,445.184,234.667,384
	S284.416,273.067,345.6,273.067S456.533,322.816,456.533,384z"/>
<path style="fill:#F0F0F0;" d="M345.6,273.067c-24.567,0-47.215,8.115-65.613,21.683c9.993-2.961,20.54-4.617,31.479-4.617
	c61.184,0,110.933,49.749,110.933,110.933c0,36.617-17.894,69.043-45.321,89.25c45.884-13.602,79.454-56.073,79.454-106.317
	C456.533,322.816,406.784,273.067,345.6,273.067z"/>
<path d="M405.333,375.467h-51.2v-51.2c0-4.71-3.823-8.533-8.533-8.533c-4.71,0-8.533,3.823-8.533,8.533v51.2h-51.2
	c-4.71,0-8.533,3.823-8.533,8.533s3.823,8.533,8.533,8.533h51.2v51.2c0,4.71,3.823,8.533,8.533,8.533
	c4.71,0,8.533-3.823,8.533-8.533v-51.2h51.2c4.71,0,8.533-3.823,8.533-8.533S410.044,375.467,405.333,375.467z"/>
<path d="M463.787,334.933c-13.824-33.28-41.387-59.477-75.52-71.595C374.955,258.56,360.619,256,345.6,256
	c-53.163,0-98.816,32.597-118.187,78.848c-6.315,15.104-9.813,31.744-9.813,49.152c0,1.707,0,3.413,0.085,5.12
	c1.365,34.987,16.981,66.475,41.045,88.747C281.6,499.115,312.064,512,345.6,512c68.864,0,125.184-54.613,127.829-122.795
	c0.171-1.707,0.171-3.499,0.171-5.205C473.6,366.592,470.101,350.037,463.787,334.933z M443.136,436.821
	c-18.773,34.56-55.467,58.112-97.536,58.112c-42.155,0-78.848-23.552-97.621-58.283c-8.448-15.701-13.312-33.621-13.312-52.651
	v-1.28c0.683-60.587,50.176-109.653,110.933-109.653c15.104,0,29.525,3.072,42.667,8.533c39.68,16.555,67.755,55.552,68.181,101.12
	c0.085,0.427,0.085,0.853,0.085,1.28c0,19.029-4.864,37.035-13.312,52.736C443.136,436.821,443.136,436.821,443.136,436.821z"/>
<path d="M234.667,477.867c0,4.693-3.84,8.533-8.533,8.533h-179.2c-4.693,0-8.533-3.84-8.533-8.533V409.6
	c0-4.693,3.84-8.533,8.533-8.533s8.533,3.84,8.533,8.533v59.733h170.667C230.827,469.333,234.667,473.173,234.667,477.867z"/>
<path d="M55.467,375.467c0,4.693-3.755,8.533-8.448,8.533h-0.085c-4.693,0-8.533-3.84-8.533-8.533s3.84-8.533,8.533-8.533
	S55.467,370.773,55.467,375.467z"/>
<path d="M394.325,139.008L257.792,2.475C256.171,0.939,254.037,0,251.733,0h-204.8C42.24,0,38.4,3.84,38.4,8.533v332.8
	c0,4.693,3.84,8.533,8.533,8.533s8.533-3.84,8.533-8.533V17.067H243.2v128c0,4.693,3.84,8.533,8.533,8.533h128v76.8
	c0,4.693,3.84,8.533,8.533,8.533c3.328,0,6.229-1.877,7.595-4.693c0.597-1.195,0.939-2.475,0.939-3.84v-85.333
	C396.8,142.763,395.861,140.629,394.325,139.008z M260.267,136.533V29.099l107.435,107.435H260.267z"/>
<polygon style="fill:#7E939E;" points="367.701,136.533 260.267,136.533 260.267,29.099 "/>
<path style="fill:#AFAFAF;" d="M337.067,153.6v69.717c-59.136,4.181-106.411,52.053-109.653,111.531
	c-6.315,15.104-9.813,31.744-9.813,49.152c0,1.707,0,3.413,0.085,5.12c1.365,34.987,16.981,66.475,41.045,88.747h-24.064
	c0-4.693-3.84-8.533-8.533-8.533H55.467V409.6c0-4.693-3.84-8.533-8.533-8.533V384h0.085c4.693,0,8.448-3.84,8.448-8.533
	s-3.84-8.533-8.533-8.533v-17.067c4.693,0,8.533-3.84,8.533-8.533V17.067H243.2v128c0,4.693,3.84,8.533,8.533,8.533H337.067z"/>
<line style="fill:none;stroke:#231F20;stroke-width:2;stroke-miterlimit:10;" x1="388.267" y1="238.933" x2="388.267" y2="213.333"/>
<path style="fill:#7E939E;" d="M379.733,230.4v-2.304v-18.944V153.6h-42.667v51.456v18.261
	c-59.136,4.181-106.411,52.053-109.653,111.531C246.784,288.597,292.437,256,345.6,256c15.019,0,29.355,2.56,42.667,7.339v-24.405
	C383.573,238.933,379.733,235.093,379.733,230.4z"/>
<line style="fill:none;stroke:#231F20;stroke-width:2;stroke-miterlimit:10;" x1="337.067" y1="153.6" x2="337.067" y2="145.067"/>
<g>
</g>
<g>
</g>
<g>
</g>
<g>
</g>
<g>
</g>
<g>
</g>
<g>
</g>
<g>
</g>
<g>
</g>
<g>
</g>
<g>
</g>
<g>
</g>
<g>
</g>
<g>
</g>
<g>
</g>
</svg>
