<?xml version="1.0" encoding="iso-8859-1"?>
<!-- Generator: Adobe Illustrator 19.0.0, SVG Export Plug-In . SVG Version: 6.00 Build 0)  -->
<svg version="1.1" id="Layer_1" xmlns="http://www.w3.org/2000/svg" xmlns:xlink="http://www.w3.org/1999/xlink" x="0px" y="0px"
	 viewBox="0 0 328.866 328.866" style="enable-background:new 0 0 328.866 328.866;" xml:space="preserve">
<g>
	<rect x="45.295" y="7.5" style="fill:#FFDB77;" width="238.275" height="313.866"/>
	<g>
		<path style="fill:#22313F;" d="M283.572,0H45.295c-4.143,0-7.5,3.358-7.5,7.5v313.866c0,4.142,3.357,7.5,7.5,7.5H283.57
			c4.143,0,7.5-3.358,7.5-7.5V7.5C291.072,3.358,287.714,0,283.572,0z M276.072,313.866H52.795V15H276.07v298.866H276.072z"/>
		<path style="fill:#22313F;" d="M90.937,132.439h146.992c4.143,0,7.5-3.358,7.5-7.5s-3.357-7.5-7.5-7.5H90.937
			c-4.143,0-7.5,3.358-7.5,7.5S86.794,132.439,90.937,132.439z"/>
		<path style="fill:#22313F;" d="M90.937,179.933h146.992c4.143,0,7.5-3.358,7.5-7.5s-3.357-7.5-7.5-7.5H90.937
			c-4.143,0-7.5,3.358-7.5,7.5S86.794,179.933,90.937,179.933z"/>
		<path style="fill:#22313F;" d="M90.937,227.428h146.992c4.143,0,7.5-3.358,7.5-7.5s-3.357-7.5-7.5-7.5H90.937
			c-4.143,0-7.5,3.358-7.5,7.5C83.437,224.07,86.794,227.428,90.937,227.428z"/>
		<path style="fill:#22313F;" d="M90.937,274.923h146.992c4.143,0,7.5-3.358,7.5-7.5s-3.357-7.5-7.5-7.5H90.937
			c-4.143,0-7.5,3.358-7.5,7.5S86.794,274.923,90.937,274.923z"/>
		<path style="fill:#22313F;" d="M114.433,69.933h100c4.143,0,7.5-3.358,7.5-7.5s-3.357-7.5-7.5-7.5h-100
			c-4.143,0-7.5,3.358-7.5,7.5S110.29,69.933,114.433,69.933z"/>
	</g>
</g>
<g>
</g>
<g>
</g>
<g>
</g>
<g>
</g>
<g>
</g>
<g>
</g>
<g>
</g>
<g>
</g>
<g>
</g>
<g>
</g>
<g>
</g>
<g>
</g>
<g>
</g>
<g>
</g>
<g>
</g>
</svg>
