<?xml version="1.0" encoding="iso-8859-1"?>
<!-- Generator: Adobe Illustrator 19.0.0, SVG Export Plug-In . SVG Version: 6.00 Build 0)  -->
<svg version="1.1" id="Layer_1" xmlns="http://www.w3.org/2000/svg" xmlns:xlink="http://www.w3.org/1999/xlink" x="0px" y="0px"
	 viewBox="0 0 512 512" style="enable-background:new 0 0 512 512;" xml:space="preserve">
<polygon style="fill:#FFB74D;" points="406.941,98.68 406.941,473.339 39.241,473.339 39.241,0 308.793,0 406.794,98.534 "/>
<polygon style="fill:#FFA91E;" points="406.941,98.68 406.941,473.339 223.091,473.339 223.091,0 308.793,0 406.794,98.534 "/>
<g>
	<rect x="98.858" y="257.526" style="fill:#FFFFFF;" width="137.927" height="31.347"/>
	<rect x="97.865" y="130.675" style="fill:#FFFFFF;" width="137.927" height="31.347"/>
	<rect x="97.865" y="194.414" style="fill:#FFFFFF;" width="250.775" height="31.347"/>
</g>
<polygon style="fill:#FF8900;" points="406.794,98.532 308.794,98.532 308.794,0 "/>
<path style="fill:#67BFFF;" d="M472.759,406.601C472.759,464.812,425.571,512,367.36,512c-0.251,0-0.502,0-0.752-0.01
	c-28.473-0.188-54.251-11.682-73.101-30.208c-16.927-16.635-28.264-38.933-30.929-63.843c-0.397-3.72-0.616-7.502-0.616-11.337
	c0-31.587,13.908-59.925,35.913-79.245c0.24-0.209,0.481-0.418,0.721-0.616c8.579-7.398,18.369-13.427,29.017-17.774
	c12.048-4.901,25.203-7.659,38.996-7.743c0.251-0.01,0.502-0.01,0.752-0.01C425.571,301.213,472.759,348.39,472.759,406.601z"/>
<path style="fill:#0088FF;" d="M472.759,406.601C472.759,464.812,425.571,512,367.36,512c-0.251,0-0.502,0-0.752-0.01V301.223
	c0.251-0.01,0.502-0.01,0.752-0.01C425.571,301.213,472.759,348.39,472.759,406.601z"/>
<polygon style="fill:#FFFFFF;" points="422.823,391.952 422.823,423.299 383.033,423.299 383.033,465.157 351.687,465.157 
	351.687,423.299 311.897,423.299 311.897,391.952 351.687,391.952 351.687,350.103 383.033,350.103 383.033,391.952 "/>
<g>
	<polygon style="fill:#D9D8DB;" points="422.823,391.952 422.823,423.299 383.033,423.299 383.033,465.157 366.608,465.157 
		366.608,350.103 383.033,350.103 383.033,391.952 	"/>
	<rect x="223.086" y="130.675" style="fill:#D9D8DB;" width="12.696" height="31.347"/>
	<rect x="223.086" y="257.526" style="fill:#D9D8DB;" width="13.688" height="31.347"/>
	<rect x="223.086" y="194.414" style="fill:#D9D8DB;" width="125.544" height="31.347"/>
</g>
<g>
</g>
<g>
</g>
<g>
</g>
<g>
</g>
<g>
</g>
<g>
</g>
<g>
</g>
<g>
</g>
<g>
</g>
<g>
</g>
<g>
</g>
<g>
</g>
<g>
</g>
<g>
</g>
<g>
</g>
</svg>
