<?xml version="1.0" encoding="iso-8859-1"?>
<!-- Generator: Adobe Illustrator 19.0.0, SVG Export Plug-In . SVG Version: 6.00 Build 0)  -->
<svg version="1.1" id="Layer_1" xmlns="http://www.w3.org/2000/svg" xmlns:xlink="http://www.w3.org/1999/xlink" x="0px" y="0px"
	 viewBox="0 0 437.266 437.266" style="enable-background:new 0 0 437.266 437.266;" xml:space="preserve">
<g id="XMLID_1190_">
	<path id="XMLID_1126_" style="fill:#165C92;" d="M388.097,124.533H226.136V83.904c0-13.296,10.779-24.075,24.075-24.075h113.81
		c13.296,0,24.075,10.779,24.075,24.075L388.097,124.533L388.097,124.533z"/>
	<g id="XMLID_1124_">
		<path id="XMLID_1125_" style="fill:#AA6100;" d="M437.266,125.825c0-12.703-10.298-23.002-23.002-23.002H199.108V61.121
			c0-12.704-10.298-23.002-23.002-23.002H60.149c-12.704,0-23.002,10.298-23.002,23.002v284.255
			c0,12.704,10.298,23.002,23.002,23.002h354.114c12.704,0,23.002-10.298,23.002-23.002L437.266,125.825L437.266,125.825z"/>
	</g>
	<path id="XMLID_994_" style="fill:#1A6FB0;" d="M350.949,155.302H188.988v-40.629c0-13.296,10.779-24.075,24.075-24.075h113.81
		c13.296,0,24.075,10.779,24.075,24.075v40.629H350.949z"/>
	<g id="XMLID_1160_">
		<g>
			<g id="XMLID_1155_" style="opacity:0.1;">
				<path id="XMLID_1157_" d="M410.118,153.14c0-16.319-13.229-29.548-29.548-29.548H171.96V88.436
					c0-16.319-13.229-29.548-29.548-29.548H33.002C20.298,58.888,10,69.187,10,81.89v284.255c0,12.704,10.298,23.002,23.002,23.002
					h354.114c12.704,0,23.002-10.298,23.002-23.002L410.118,153.14L410.118,153.14z"/>
			</g>
		</g>
	</g>
	<g id="XMLID_1156_">
		<path id="XMLID_996_" style="fill:#FFA733;" d="M400.118,156.594c0-12.703-10.298-23.002-23.002-23.002H161.961V91.89
			c0-12.704-10.298-23.002-23.002-23.002H23.002C10.298,68.888,0,79.187,0,91.89v284.255c0,12.704,10.298,23.002,23.002,23.002
			h354.114c12.704,0,23.002-10.298,23.002-23.002L400.118,156.594L400.118,156.594z"/>
	</g>
	<rect id="XMLID_1208_" x="37.148" y="278.798" style="fill:#FFFFFF;" width="117.52" height="58.715"/>
</g>
<g>
</g>
<g>
</g>
<g>
</g>
<g>
</g>
<g>
</g>
<g>
</g>
<g>
</g>
<g>
</g>
<g>
</g>
<g>
</g>
<g>
</g>
<g>
</g>
<g>
</g>
<g>
</g>
<g>
</g>
</svg>
