<?xml version="1.0" encoding="iso-8859-1"?>
<!-- Generator: Adobe Illustrator 19.0.0, SVG Export Plug-In . SVG Version: 6.00 Build 0)  -->
<svg version="1.1" id="Layer_1" xmlns="http://www.w3.org/2000/svg" xmlns:xlink="http://www.w3.org/1999/xlink" x="0px" y="0px"
	 viewBox="0 0 512 512" style="enable-background:new 0 0 512 512;" xml:space="preserve">
<path style="fill:#FE834D;" d="M416.681,84.426H384l-177.021,32.681v65.362h242.383v-65.362
	C449.362,99.132,434.655,84.426,416.681,84.426z"/>
<path style="fill:#FEA680;" d="M416.681,117.106H206.979V84.426H384C401.974,84.426,416.681,99.132,416.681,117.106z"/>
<path style="fill:#FFC1A6;" d="M416.681,149.787H384v256h32.681c17.974,0,32.681-14.706,32.681-32.681V182.468
	C449.362,164.494,434.655,149.787,416.681,149.787z"/>
<path style="fill:#FFDBCC;" d="M384,149.787H228.766V84.426c0-17.974-14.706-32.681-32.681-32.681H40.851
	c-17.974,0-32.681,14.706-32.681,32.681v288.681c0,17.974,14.706,32.681,32.681,32.681H384c17.974,0,32.681-14.706,32.681-32.681
	V182.468C416.681,164.494,401.974,149.787,384,149.787z"/>
<path style="fill:#02ACAB;" d="M394.894,242.383v217.872c60.165,0,108.936-48.771,108.936-108.936S455.059,242.383,394.894,242.383z
	"/>
<path style="fill:#42C8C6;" d="M394.894,242.383c42.115,0,76.255,48.771,76.255,108.936s-34.141,108.936-76.255,108.936
	c-60.165,0-108.936-48.771-108.936-108.936S334.728,242.383,394.894,242.383z"/>
<path style="fill:#FFFFFF;" d="M449.362,334.979h-38.128v-38.128c0-9.024-7.316-16.34-16.34-16.34c-9.024,0-16.34,7.316-16.34,16.34
	v38.128h-38.128c-9.024,0-16.34,7.316-16.34,16.34c0,9.024,7.316,16.34,16.34,16.34h38.128v38.128c0,9.024,7.316,16.34,16.34,16.34
	c9.024,0,16.34-7.316,16.34-16.34V367.66h38.128c9.024,0,16.34-7.316,16.34-16.34C465.702,342.295,458.386,334.979,449.362,334.979z
	"/>
<path d="M264.177,397.617H40.851c-13.515,0-24.511-10.996-24.511-24.511V84.426c0-13.515,10.996-24.511,24.511-24.511h155.234
	c13.515,0,24.511,10.996,24.511,24.511v65.362c0,4.512,3.657,8.17,8.17,8.17h187.915c13.515,0,24.511,10.996,24.511,24.511v38.134
	c0,4.512,3.657,8.17,8.17,8.17c4.513,0,8.17-3.658,8.17-8.17V117.106c0-22.525-18.325-40.851-40.851-40.851H261.447
	c-4.513,0-8.17,3.658-8.17,8.17s3.657,8.17,8.17,8.17h155.234c13.515,0,24.511,10.996,24.511,24.511v32.703
	c-6.832-5.141-15.321-8.192-24.511-8.192H236.936V84.426c0-22.525-18.325-40.851-40.851-40.851H40.851
	C18.325,43.574,0,61.901,0,84.426v288.681c0,22.525,18.325,40.851,40.851,40.851h223.326c4.513,0,8.17-3.658,8.17-8.17
	C272.347,401.275,268.689,397.617,264.177,397.617z"/>
<path d="M394.894,234.213c-64.572,0-117.106,52.533-117.106,117.106s52.534,117.106,117.106,117.106S512,415.892,512,351.319
	S459.466,234.213,394.894,234.213z M394.894,452.085c-55.563,0-100.766-45.203-100.766-100.766s45.203-100.766,100.766-100.766
	S495.66,295.756,495.66,351.319S450.457,452.085,394.894,452.085z"/>
<path d="M449.362,326.809h-29.957v-29.957c0-13.515-10.996-24.511-24.511-24.511c-13.515,0-24.511,10.996-24.511,24.511v29.957
	h-29.957c-13.515,0-24.511,10.996-24.511,24.511c0,13.515,10.996,24.511,24.511,24.511h29.957v29.957
	c0,13.515,10.996,24.511,24.511,24.511c13.515,0,24.511-10.996,24.511-24.511V375.83h29.957c13.515,0,24.511-10.996,24.511-24.511
	C473.872,337.805,462.876,326.809,449.362,326.809z M449.362,359.489h-38.128c-4.513,0-8.17,3.658-8.17,8.17v38.128
	c0,4.505-3.665,8.17-8.17,8.17s-8.17-3.666-8.17-8.17V367.66c0-4.512-3.657-8.17-8.17-8.17h-38.128c-4.506,0-8.17-3.666-8.17-8.17
	c0-4.505,3.665-8.17,8.17-8.17h38.128c4.513,0,8.17-3.658,8.17-8.17v-38.128c0-4.505,3.665-8.17,8.17-8.17s8.17,3.666,8.17,8.17
	v38.128c0,4.512,3.657,8.17,8.17,8.17h38.128c4.506,0,8.17,3.666,8.17,8.17C457.532,355.824,453.867,359.489,449.362,359.489z"/>
<circle cx="106.213" cy="149.787" r="8.17"/>
<circle cx="73.532" cy="117.106" r="8.17"/>
<g>
</g>
<g>
</g>
<g>
</g>
<g>
</g>
<g>
</g>
<g>
</g>
<g>
</g>
<g>
</g>
<g>
</g>
<g>
</g>
<g>
</g>
<g>
</g>
<g>
</g>
<g>
</g>
<g>
</g>
</svg>
