<?xml version="1.0" encoding="iso-8859-1"?>
<!-- Generator: Adobe Illustrator 19.0.0, SVG Export Plug-In . SVG Version: 6.00 Build 0)  -->
<svg version="1.1" id="Layer_1" xmlns="http://www.w3.org/2000/svg" xmlns:xlink="http://www.w3.org/1999/xlink" x="0px" y="0px"
	 viewBox="0 0 512 512" style="enable-background:new 0 0 512 512;" xml:space="preserve">
<polygon style="fill:#8B8892;" points="228.654,51.848 201.251,51.848 250.914,141.757 457.307,141.757 457.307,125.588 
	457.307,51.848 "/>
<polygon style="fill:#FFB74D;" points="269.993,109.424 228.656,34.574 227.546,32.569 0,32.569 0,382.026 320.278,382.026 
	457.311,382.026 457.311,275.389 457.311,270.887 457.311,109.424 "/>
<polygon style="fill:#FFA91E;" points="269.993,109.424 228.656,34.574 228.656,382.026 320.278,382.026 457.311,382.026 
	457.311,275.389 457.311,270.887 457.311,109.424 "/>
<path style="fill:#67BFFF;" d="M512,370.702c0,60.05-48.678,108.728-108.728,108.728c-0.259,0-0.517,0-0.776-0.011
	c-29.373-0.194-55.965-12.051-75.41-31.162c-17.462-17.16-29.157-40.163-31.906-65.86c-0.41-3.837-0.636-7.739-0.636-11.695
	c0-32.585,14.347-61.818,37.048-81.748c0.248-0.216,0.496-0.431,0.744-0.636c8.85-7.632,18.95-13.851,29.933-18.335
	c12.428-5.055,25.999-7.901,40.227-7.987c0.259-0.011,0.517-0.011,0.776-0.011C463.322,261.985,512,310.652,512,370.702z"/>
<path style="fill:#0088FF;" d="M512,370.702c0,60.05-48.678,108.728-108.728,108.728c-0.259,0-0.517,0-0.776-0.011V261.996
	c0.259-0.011,0.517-0.011,0.776-0.011C463.322,261.985,512,310.652,512,370.702z"/>
<polygon style="fill:#FFFFFF;" points="460.487,355.59 460.487,387.927 419.44,387.927 419.44,431.108 387.103,431.108 
	387.103,387.927 346.057,387.927 346.057,355.59 387.103,355.59 387.103,312.42 419.44,312.42 419.44,355.59 "/>
<polygon style="fill:#D9D8DB;" points="460.487,355.59 460.487,387.927 419.44,387.927 419.44,431.108 402.496,431.108 
	402.496,312.42 419.44,312.42 419.44,355.59 "/>
<g>
</g>
<g>
</g>
<g>
</g>
<g>
</g>
<g>
</g>
<g>
</g>
<g>
</g>
<g>
</g>
<g>
</g>
<g>
</g>
<g>
</g>
<g>
</g>
<g>
</g>
<g>
</g>
<g>
</g>
</svg>
