<?xml version="1.0" encoding="iso-8859-1"?>
<!-- Generator: Adobe Illustrator 19.0.0, SVG Export Plug-In . SVG Version: 6.00 Build 0)  -->
<svg version="1.1" id="Layer_1" xmlns="http://www.w3.org/2000/svg" xmlns:xlink="http://www.w3.org/1999/xlink" x="0px" y="0px"
	 viewBox="0 0 512 512" style="enable-background:new 0 0 512 512;" xml:space="preserve">
<path style="fill:#FFFFFF;" d="M494.933,384c0,61.184-49.749,110.933-110.933,110.933S273.067,445.184,273.067,384
	S322.816,273.067,384,273.067S494.933,322.816,494.933,384z"/>
<path style="fill:#F0F0F0;" d="M384,273.067c-24.568,0-47.215,8.115-65.613,21.683c9.992-2.961,20.54-4.617,31.479-4.617
	c61.184,0,110.933,49.749,110.933,110.933c0,36.617-17.894,69.043-45.321,89.25c45.884-13.602,79.454-56.073,79.454-106.317
	C494.933,322.816,445.184,273.067,384,273.067z"/>
<g>
	<path style="fill:#CC004E;" d="M300.629,252.928c-15.189,10.496-29.696,4.864-37.803-0.341c1.024-1.451,1.707-3.243,1.707-5.12
		c0-7.68,0-13.312,5.717-19.2c3.499,1.28,7.339,2.133,11.349,2.133s7.851-0.853,11.349-2.133c5.717,5.888,5.717,11.52,5.717,19.2
		C298.667,249.515,299.435,251.477,300.629,252.928z"/>
	<circle style="fill:#CC004E;" cx="281.6" cy="196.267" r="17.067"/>
</g>
<g>
	<path style="fill:#0F7BE4;" d="M229.12,324.181c-11.008,34.219-88.832,34.219-99.84,0c4.096-0.683,7.253-4.181,7.253-8.448
		c0-46.507,22.613-70.229,30.976-78.677c3.755,1.109,7.595,1.877,11.691,1.877s7.936-0.768,11.691-1.877
		c8.363,8.448,30.976,32.171,30.976,78.677C221.867,320,225.024,323.499,229.12,324.181z"/>
	<circle style="fill:#0F7BE4;" cx="179.2" cy="196.267" r="25.6"/>
</g>
<path style="fill:#FDB50D;" d="M409.6,110.933v8.533H85.333v-8.533c0-4.693,3.84-8.533,8.533-8.533h307.2
	C405.76,102.4,409.6,106.24,409.6,110.933z"/>
<path d="M273.067,486.4c0,4.693-3.84,8.533-8.533,8.533H25.6c-13.653,0-25.6-11.947-25.6-25.6v-25.6c0-4.693,3.84-8.533,8.533-8.533
	s8.533,3.84,8.533,8.533v25.6c0,4.693,4.693,8.533,8.533,8.533h238.933C269.227,477.867,273.067,481.707,273.067,486.4z"/>
<path d="M469.333,119.467V76.8c0-14.08-11.52-25.6-25.6-25.6H261.717c-1.877,0-3.669-0.597-5.12-1.707L197.376,5.12
	C193.024,1.792,187.563,0,182.016,0H51.2C37.12,0,25.6,11.52,25.6,25.6v93.867c-14.08,0-25.6,11.52-25.6,25.6v230.4
	C0,380.16,3.84,384,8.533,384s8.533-3.84,8.533-8.533v-230.4c0-4.693,3.84-8.533,8.533-8.533h443.733
	c4.693,0,8.533,3.84,8.533,8.533v119.467c0,4.693,3.84,8.533,8.533,8.533s8.533-3.84,8.533-8.533V145.067
	C494.933,130.987,483.413,119.467,469.333,119.467z M409.6,119.467H85.333v-8.533c0-4.693,3.84-8.533,8.533-8.533h307.2
	c4.693,0,8.533,3.84,8.533,8.533V119.467z M452.267,119.467h-25.6v-8.533c0-14.08-11.52-25.6-25.6-25.6h-307.2
	c-14.08,0-25.6,11.52-25.6,25.6v8.533h-25.6V25.6c0-4.693,3.84-8.533,8.533-8.533h130.816c1.877,0,3.669,0.597,5.12,1.707
	l59.221,44.373c4.352,3.328,9.813,5.12,15.36,5.12h182.016c4.693,0,8.533,3.84,8.533,8.533V119.467z"/>
<path d="M443.733,375.467h-51.2v-51.2c0-4.71-3.823-8.533-8.533-8.533s-8.533,3.823-8.533,8.533v51.2h-51.2
	c-4.71,0-8.533,3.823-8.533,8.533s3.823,8.533,8.533,8.533h51.2v51.2c0,4.71,3.823,8.533,8.533,8.533s8.533-3.823,8.533-8.533v-51.2
	h51.2c4.71,0,8.533-3.823,8.533-8.533S448.444,375.467,443.733,375.467z"/>
<path d="M486.4,307.285C463.019,276.139,425.813,256,384,256c-70.571,0-128,57.429-128,128c0,41.813,20.139,79.019,51.285,102.4
	C328.704,502.443,355.243,512,384,512c70.571,0,128-57.429,128-128C512,355.243,502.443,328.704,486.4,307.285z M384,494.933
	c-61.184,0-110.933-49.749-110.933-110.933S322.816,273.067,384,273.067S494.933,322.816,494.933,384S445.184,494.933,384,494.933z"
	/>
<path d="M110.933,51.2c0,4.693-3.84,8.533-8.533,8.533H68.267c-4.693,0-8.533-3.84-8.533-8.533s3.84-8.533,8.533-8.533H102.4
	C107.093,42.667,110.933,46.507,110.933,51.2z"/>
<path d="M187.733,51.2c0,4.693-3.84,8.533-8.533,8.533h-8.533c-4.693,0-8.533-3.84-8.533-8.533s3.84-8.533,8.533-8.533h8.533
	C183.893,42.667,187.733,46.507,187.733,51.2z"/>
<circle cx="136.533" cy="51.2" r="8.533"/>
<circle cx="8.533" cy="409.6" r="8.533"/>
<path d="M206.592,228.693c9.216-7.765,15.275-19.371,15.275-32.427c0-23.552-19.115-42.667-42.667-42.667
	s-42.667,19.115-42.667,42.667c0,13.056,6.059,24.661,15.275,32.427c-11.349,12.203-32.341,39.253-32.341,87.04
	c0,4.693,3.84,8.533,8.533,8.533c0.427,0,0.853,0,1.28-0.085c4.096-0.683,7.253-4.181,7.253-8.448
	c0-46.507,22.613-70.229,30.976-78.677c3.755,1.109,7.595,1.877,11.691,1.877s7.936-0.768,11.691-1.877
	c8.363,8.448,30.976,32.171,30.976,78.677c0,4.267,3.157,7.765,7.253,8.448c0.427,0.085,0.853,0.085,1.28,0.085
	c4.693,0,8.533-3.84,8.533-8.533C238.933,267.947,217.941,240.896,206.592,228.693z M179.2,221.867c-14.08,0-25.6-11.52-25.6-25.6
	s11.52-25.6,25.6-25.6s25.6,11.52,25.6,25.6S193.28,221.867,179.2,221.867z"/>
<path d="M315.733,196.267c0-18.859-15.275-34.133-34.133-34.133c-18.859,0-34.133,15.275-34.133,34.133
	c0,8.619,3.328,16.384,8.533,22.357c-8.448,10.155-8.533,20.48-8.533,28.843c0,4.693,3.84,8.533,8.533,8.533
	c2.816,0,5.291-1.365,6.827-3.413c1.024-1.451,1.707-3.243,1.707-5.12c0-7.68,0-13.312,5.717-19.2
	c3.499,1.28,7.339,2.133,11.349,2.133s7.851-0.853,11.349-2.133c5.717,5.888,5.717,11.52,5.717,19.2
	c0,2.048,0.768,4.011,1.963,5.461c1.621,1.877,3.925,3.072,6.571,3.072c4.693,0,8.533-3.84,8.533-8.533
	c0-8.363-0.085-18.688-8.533-28.843C312.405,212.651,315.733,204.885,315.733,196.267z M281.6,213.333
	c-9.387,0-17.067-7.68-17.067-17.067s7.68-17.067,17.067-17.067s17.067,7.68,17.067,17.067S290.987,213.333,281.6,213.333z"/>
<path d="M110.933,196.267c0-18.859-15.275-34.133-34.133-34.133s-34.133,15.275-34.133,34.133c0,8.619,3.328,16.384,8.533,22.357
	c-8.448,10.155-8.533,20.48-8.533,28.843c0,4.693,3.84,8.533,8.533,8.533c2.816,0,5.291-1.365,6.827-3.413
	c1.024-1.451,1.707-3.243,1.707-5.12c0-7.68,0-13.312,5.717-19.2c3.499,1.28,7.339,2.133,11.349,2.133
	c4.011,0,7.851-0.853,11.349-2.133c5.717,5.888,5.717,11.52,5.717,19.2c0,2.048,0.768,4.011,1.963,5.461
	c1.621,1.877,3.925,3.072,6.571,3.072c4.693,0,8.533-3.84,8.533-8.533c0-8.363-0.085-18.688-8.533-28.843
	C107.605,212.651,110.933,204.885,110.933,196.267z M76.8,213.333c-9.387,0-17.067-7.68-17.067-17.067S67.413,179.2,76.8,179.2
	s17.067,7.68,17.067,17.067S86.187,213.333,76.8,213.333z"/>
<path style="fill:#AFAFAF;" d="M477.867,264.533V145.067c0-4.693-3.84-8.533-8.533-8.533H25.6c-4.693,0-8.533,3.84-8.533,8.533
	v230.4c0,4.693-3.84,8.533-8.533,8.533v17.067c4.693,0,8.533,3.84,8.533,8.533c0,4.693-3.84,8.533-8.533,8.533V435.2
	c4.693,0,8.533,3.84,8.533,8.533v25.6c0,4.693,4.693,8.533,8.533,8.533h238.933c4.693,0,8.533,3.84,8.533,8.533h34.219
	C276.139,463.019,256,425.813,256,384c0-70.571,57.429-128,128-128c41.813,0,79.019,20.139,102.4,51.285v-34.219
	C481.707,273.067,477.867,269.227,477.867,264.533z M110.933,247.467c0,4.693-3.84,8.533-8.533,8.533
	c-2.645,0-4.949-1.195-6.571-3.072c-15.189,10.496-29.696,4.864-37.803-0.341C56.491,254.635,54.016,256,51.2,256
	c-4.693,0-8.533-3.84-8.533-8.533c0-8.363,0.085-18.688,8.533-28.843c-5.205-5.973-8.533-13.739-8.533-22.357
	c0-18.859,15.275-34.133,34.133-34.133s34.133,15.275,34.133,34.133c0,8.619-3.328,16.384-8.533,22.357
	C110.848,228.779,110.933,239.104,110.933,247.467z M230.4,324.267c-0.427,0-0.853,0-1.28-0.085
	c-11.008,34.219-88.832,34.219-99.84,0c-0.427,0.085-0.853,0.085-1.28,0.085c-4.693,0-8.533-3.84-8.533-8.533
	c0-47.787,20.992-74.837,32.341-87.04c-9.216-7.765-15.275-19.371-15.275-32.427c0-23.552,19.115-42.667,42.667-42.667
	s42.667,19.115,42.667,42.667c0,13.056-6.059,24.661-15.275,32.427c11.349,12.203,32.341,39.253,32.341,87.04
	C238.933,320.427,235.093,324.267,230.4,324.267z M315.733,247.467c0,4.693-3.84,8.533-8.533,8.533
	c-2.645,0-4.949-1.195-6.571-3.072c-15.189,10.496-29.696,4.864-37.803-0.341C261.291,254.635,258.816,256,256,256
	c-4.693,0-8.533-3.84-8.533-8.533c0-8.363,0.085-18.688,8.533-28.843c-5.205-5.973-8.533-13.739-8.533-22.357
	c0-18.859,15.275-34.133,34.133-34.133c18.859,0,34.133,15.275,34.133,34.133c0,8.619-3.328,16.384-8.533,22.357
	C315.648,228.779,315.733,239.104,315.733,247.467z"/>
<g>
	<circle style="fill:#CC004E;" cx="76.8" cy="196.267" r="17.067"/>
	<path style="fill:#CC004E;" d="M95.829,252.928c-15.189,10.496-29.696,4.864-37.803-0.341c1.024-1.451,1.707-3.243,1.707-5.12
		c0-7.68,0-13.312,5.717-19.2c3.499,1.28,7.339,2.133,11.349,2.133c4.011,0,7.851-0.853,11.349-2.133
		c5.717,5.888,5.717,11.52,5.717,19.2C93.867,249.515,94.635,251.477,95.829,252.928z"/>
</g>
<path style="fill:#7E939E;" d="M477.867,264.448V144.981c0-4.693-3.84-8.533-8.533-8.533h-25.6v111.019
	c-12.117-5.12-25.344-8.107-39.168-8.533c-1.195-0.085-2.304-0.085-3.499-0.085c-15.104,0-29.525,3.072-42.667,8.533h-0.085
	c-13.653,5.717-25.941,14.08-36.096,24.491c5.035-2.816,10.325-5.291,15.701-7.339c14.251-5.547,29.781-8.619,46.08-8.619
	c21.589,0,41.899,5.376,59.733,14.848c16.811,8.789,31.317,21.333,42.667,36.437v-34.219
	C481.707,272.981,477.867,269.141,477.867,264.448z"/>
<path style="fill:#F6981E;" d="M401.067,102.4h-34.133c4.693,0,8.533,3.84,8.533,8.533v8.533H409.6v-8.533
	C409.6,106.24,405.76,102.4,401.067,102.4z"/>
<g>
	<path style="fill:#215EFF;" d="M179.2,170.667c-0.137,0-0.273,0.043-0.41,0.043c10.103,3.43,17.476,12.919,17.476,24.149
		c0,13.935-11.298,25.327-25.19,25.557c2.569,0.87,5.274,1.451,8.124,1.451c14.08,0,25.6-11.52,25.6-25.6
		S193.28,170.667,179.2,170.667z"/>
	<path style="fill:#215EFF;" d="M215.014,325.794c0,4.745,3.14,8.619,7.228,9.463c3.132-3.174,5.521-6.861,6.878-11.076
		c-4.096-0.683-7.253-4.181-7.253-8.448c0-46.507-22.613-70.229-30.976-78.677c-2.022,0.597-4.079,1.067-6.178,1.399
		C193.997,249.02,215.014,275.635,215.014,325.794z"/>
</g>
<g>
	<path style="fill:#9B0045;" d="M291.337,247.467c0,1.724,2.21,6.332,3.644,8.678c1.869-0.845,3.755-1.903,5.658-3.217
		c-1.203-1.451-1.971-3.413-1.971-5.461c0-7.68,0-13.312-5.717-19.2c-1.451,0.529-2.987,0.93-4.54,1.28
		C291.635,234.854,291.337,241.041,291.337,247.467z"/>
	<path style="fill:#9B0045;" d="M282.223,179.26c5.658,2.782,9.617,8.567,9.617,15.266c0,9.387-7.68,17.067-17.067,17.067
		c-0.213,0-0.418-0.06-0.623-0.06c2.261,1.118,4.77,1.801,7.45,1.801c9.387,0,17.067-7.68,17.067-17.067
		C298.667,187.093,291.319,179.601,282.223,179.26z"/>
	<path style="fill:#9B0045;" d="M86.537,247.467c0,1.724,2.21,6.332,3.644,8.678c1.869-0.845,3.755-1.903,5.658-3.217
		c-1.203-1.451-1.971-3.413-1.971-5.461c0-7.68,0-13.312-5.717-19.2c-1.451,0.529-2.987,0.93-4.54,1.28
		C86.835,234.854,86.537,241.041,86.537,247.467z"/>
	<path style="fill:#9B0045;" d="M77.423,179.26c5.658,2.782,9.617,8.567,9.617,15.266c0,9.387-7.68,17.067-17.067,17.067
		c-0.213,0-0.418-0.06-0.623-0.06c2.261,1.118,4.77,1.801,7.45,1.801c9.387,0,17.067-7.68,17.067-17.067
		C93.867,187.093,86.519,179.601,77.423,179.26z"/>
</g>
<path style="fill:#7E939E;" d="M443.733,68.267H261.717c-5.547,0-11.008-1.792-15.36-5.12l-59.221-44.373
	c-1.451-1.109-3.243-1.707-5.12-1.707H51.2c-4.693,0-8.533,3.84-8.533,8.533v93.867h25.6v-8.533c0-14.08,11.52-25.6,25.6-25.6h307.2
	c14.08,0,25.6,11.52,25.6,25.6v8.533h25.6V76.8C452.267,72.107,448.427,68.267,443.733,68.267z M102.4,59.733H68.267
	c-4.693,0-8.533-3.84-8.533-8.533s3.84-8.533,8.533-8.533H102.4c4.693,0,8.533,3.84,8.533,8.533S107.093,59.733,102.4,59.733z
	 M136.533,59.733c-4.693,0-8.533-3.84-8.533-8.533s3.84-8.533,8.533-8.533s8.533,3.84,8.533,8.533S141.227,59.733,136.533,59.733z
	 M179.2,59.733h-8.533c-4.693,0-8.533-3.84-8.533-8.533s3.84-8.533,8.533-8.533h8.533c4.693,0,8.533,3.84,8.533,8.533
	S183.893,59.733,179.2,59.733z"/>
<g>
</g>
<g>
</g>
<g>
</g>
<g>
</g>
<g>
</g>
<g>
</g>
<g>
</g>
<g>
</g>
<g>
</g>
<g>
</g>
<g>
</g>
<g>
</g>
<g>
</g>
<g>
</g>
<g>
</g>
</svg>
