<?xml version="1.0" encoding="iso-8859-1"?>
<!-- Generator: Adobe Illustrator 19.0.0, SVG Export Plug-In . SVG Version: 6.00 Build 0)  -->
<svg version="1.1" id="Capa_1" xmlns="http://www.w3.org/2000/svg" xmlns:xlink="http://www.w3.org/1999/xlink" x="0px" y="0px"
	 viewBox="0 0 491.402 491.402" style="enable-background:new 0 0 491.402 491.402;" xml:space="preserve">
<g>
	<g>
		<path d="M83.6,38.476l-1.9-0.1h-0.5h-1h-1c-2.7,0-4.8-0.2-8.3,0.2l-4.8,0.5l-4.3,0.9c-3,0.5-5.8,1.6-8.8,2.5
			c-11.5,4.1-22.1,11.4-30.5,20.7c-8.3,9.5-14.4,21.3-17,33.9c-0.5,3.2-1.3,6.4-1.4,9.6l-0.3,5l-0.1,4.1l-0.3,16.1
			c-0.8,51.9-1.5,103.8-2.3,155.7l-1.1,77.9v5.7l0.2,4.9c0,1.3,0.4,4,0.6,6.2c0.3,2.3,0.6,4.6,1.2,6.5c1.7,8.1,4.9,15.9,9.1,23.1
			c4.1,7.2,9.4,13.7,15.6,19.3c6.2,5.5,13.1,10.4,20.8,13.8c7.6,3.4,15.7,5.9,24.1,6.8c2.1,0.3,4.2,0.3,6.2,0.5l3.1,0.2h2.5l9.8,0.1
			l39,0.3c26,0.1,52.1,0.2,78.1,0.2c52.1,0,104.3-0.3,156.5-1.2l38.7,0.6h1.2h0.6h1.5l2.4-0.1l2.4-0.1c0.8,0,1.5,0,2.8-0.2
			c2.3-0.3,4.6-0.6,6.9-0.9c2.2-0.4,4.1-0.9,6.2-1.4c8-2.2,15.9-5.4,22.9-10c11.3-7,20.6-17,27.3-28.5c6.8-11.5,10.4-24.8,11-38.1
			l0.1-2.5v-2v-3.8l0.1-7.7l0.1-15.4l0.2-30.7c0.1-41,0.1-81.9,0.2-122.8c-0.1-9.5,0.7-22-3.5-36.1c-3.7-13-10.9-24.8-20.2-34.4
			c-9.3-9.7-21-16.8-33.7-21.1c-3.1-1.1-6.5-1.8-9.7-2.6c-3.3-0.5-6.6-1.1-9.9-1.3c-7.3-0.4-11.7-0.2-16.9-0.2
			c-20.4,0.3-40.9,0.6-61.3,0.9l-30.6,0.6l-7.6,0.2l-3.8,0.1h-0.5h-0.1c-0.2,0-0.2,0-0.2,0h-0.3l-1.9-0.1c-1.2-0.1-2.7,0-3.6-0.1
			c-0.7-0.1-1.5-0.2-2.2-0.3c-1.4,0-3.4-0.7-5.2-1c-8.2-2.2-15.6-6.3-21.4-11.3c-5.8-5-10.2-10.8-13.3-16c-3.2-5.2-5.4-10-7.3-13.2
			c-1.9-3.2-4-5-6.2-4.1c-1.9,0.7-3.9,3.4-5.1,7.9c-4.5-2.2-13.8-4.2-25.3-5.9c-34.9-5.2-73.6-8.9-114.3-11.4L83.6,38.476z
			 M192.1,68.176c11.1,0.1,28.4-3.3,34-5.8c-0.2,3.8,0,8.3,1.2,13.5c2,8,6.2,17.6,14.1,26.2c7.8,8.6,18.9,16.6,32.9,20.3
			c1.6,0.4,3,0.9,4.8,1.2l5.2,0.9c0.8,0.1,1.8,0.3,2.5,0.4l2,0.1l4,0.3l16.7,0.4c10.7,0.2,21.4,0.4,32.1,0.6
			c21.4,0.4,42.9,0.8,64.4,1.1c1.5,0,2.5,0.1,3.4,0.2l3,0.2c2,0.4,4,0.6,5.9,1.1c3.9,0.9,7.7,2.5,11.2,4.3
			c7.1,3.8,13.1,9.5,17.5,16.1c2,3.4,4,6.9,5.1,10.7c0.8,1.8,1,3.8,1.6,5.7l0.4,2.5c0.1,0.8,0.4,1.4,0.4,3l0.2,4v0.6l0,0v0.5v2v8
			v16.1l0.5,103.5l0.4,51.7l0.1,12.8l-0.2,4.9c-0.3,1.6-0.4,3.2-0.7,4.8c-1.3,6.4-3.9,12.5-7.6,18c-3.7,5.4-8.6,10.1-14.2,13.6
			c-1.4,0.9-2.8,1.8-4.3,2.4c-1.5,0.8-3,1.4-4.5,2c-1.5,0.7-3.1,1.1-4.7,1.5c-1.7,0.5-3.1,0.7-4.4,1c-0.8,0.1-1.2,0.3-2.3,0.4
			l-3.2,0.2l-2.5,0.1h-3.2l-12.9,0.1l-25.9,0.3l-103.5,1.1c-30.9-1.4-61.9-2.6-93-3.5c-30.5-0.8-61.1-1.6-91.7-2.3
			c-11-1.3-21.3-6.7-28.6-14.9c-3.6-4.1-6.5-8.8-8.5-13.9c-1-2.5-1.7-5.3-2.2-7.7c-0.1-1.1-0.3-2-0.5-3.2l-0.3-5.9
			c0.1-31,0.2-62,0.3-93c0-31.4-0.1-62.7-0.1-94.1l0-46.6l-0.1-23.5c0-5.7,1-10.9,2.9-16c3.8-10.1,11.6-18.8,21.3-23.7
			c2.4-1.3,4.9-2.2,7.5-3c1.3-0.3,2.7-0.7,3.8-0.9c1.1-0.1,2-0.3,3.2-0.6l5.9-0.3h4.9h11.8C129.5,67.776,160.8,67.976,192.1,68.176z
			"/>
	</g>
</g>
<g>
</g>
<g>
</g>
<g>
</g>
<g>
</g>
<g>
</g>
<g>
</g>
<g>
</g>
<g>
</g>
<g>
</g>
<g>
</g>
<g>
</g>
<g>
</g>
<g>
</g>
<g>
</g>
<g>
</g>
</svg>
